<svg width="36" height="49" viewBox="0 0 36 49" fill="none" xmlns="http://www.w3.org/2000/svg">
<path d="M0.210533 2.64092V46.3632C0.211887 46.8059 0.331055 47.2398 0.555206 47.6182C0.779362 47.9967 1.10001 48.3053 1.48264 48.5109C1.86527 48.7166 2.2954 48.8114 2.72672 48.7852C3.15804 48.759 3.57422 48.6128 3.93047 48.3623L34.7521 26.5012C36.03 25.5951 36.03 23.4139 34.7521 22.5054L3.93047 0.644269C3.57497 0.391226 3.15858 0.242835 2.72654 0.21522C2.2945 0.187605 1.86333 0.28182 1.47989 0.487631C1.09645 0.693442 0.775387 1.00298 0.551598 1.3826C0.327808 1.76223 0.20985 2.19743 0.210533 2.64092ZM29.2374 24.5021L4.95232 41.7287L4.95232 7.27548L29.2374 24.5021Z" fill="white"/>
</svg>