<svg width="20" height="39" viewBox="0 0 20 39" fill="none" xmlns="http://www.w3.org/2000/svg">
<g clip-path="url(#clip0_745_463)">
<path d="M0.632362 20.5714H4.93096V37.7633C4.93096 38.1028 5.21429 38.3776 5.56332 38.3776H12.8522C13.2017 38.3776 13.4845 38.1023 13.4845 37.7633V20.6523H18.4263C18.7473 20.6523 19.0179 20.418 19.0547 20.108L19.8052 13.7788C19.8258 13.6045 19.7689 13.4302 19.6493 13.2997C19.5292 13.1688 19.3576 13.094 19.1772 13.094H13.485V9.12674C13.485 7.931 14.1478 7.32431 15.4556 7.32431H19.1772C19.5268 7.32431 19.8096 7.04907 19.8096 6.71001V0.900316C19.8096 0.560782 19.5263 0.286012 19.1772 0.286012H14.0482C14.012 0.284107 13.9316 0.28125 13.8134 0.28125C12.9237 0.28125 9.83005 0.450779 7.38638 2.63465C4.67899 5.05472 5.05547 7.95195 5.14517 8.45434V13.0935H0.632362C0.282847 13.0935 0 13.3688 0 13.7078V19.9561C0 20.2956 0.283338 20.5709 0.632362 20.5709V20.5714Z" fill="#422667"/>
</g>
<defs>
<clipPath id="clip0_745_463">
<rect width="19.8101" height="38.0963" fill="white" transform="translate(0 0.28125)"/>
</clipPath>
</defs>
</svg>
