<svg width="43" height="39" viewBox="0 0 43 39" fill="none" xmlns="http://www.w3.org/2000/svg">
<g clip-path="url(#clip0_1810_211)">
<path d="M1.39643 39H6.98642C7.75774 39 8.38285 38.3793 8.38285 37.6135V13.3533C8.38285 12.5875 7.75774 11.9668 6.98642 11.9668H1.39643C0.625112 11.9668 0 12.5875 0 13.3533V37.614C0 38.3799 0.625112 39.0005 1.39643 39.0005V39Z" fill="#422667"/>
<path d="M1.39643 7.70159H6.98642C7.75774 7.70159 8.38285 7.08091 8.38285 6.31508V1.38651C8.38285 0.620674 7.75774 0 6.98642 0H1.39643C0.625112 0 0 0.620674 0 1.38651V6.31508C0 7.08091 0.625112 7.70159 1.39643 7.70159Z" fill="#422667"/>
<path d="M40.8966 14.7808C40.1113 13.754 38.953 12.9097 37.4211 12.248C35.8898 11.5867 34.1988 11.2559 32.3493 11.2559C28.5943 11.2559 25.4128 12.6787 22.8044 15.5248C22.2851 16.091 21.9078 15.9672 21.9078 15.2014V13.3532C21.9078 12.5874 21.2827 11.9667 20.5114 11.9667H15.518C14.7467 11.9667 14.1216 12.5874 14.1216 13.3532V37.614C14.1216 38.3798 14.7467 39.0005 15.518 39.0005H21.108C21.8793 39.0005 22.5044 38.3798 22.5044 37.614V29.177C22.5044 25.6621 22.7184 23.2525 23.1457 21.9493C23.573 20.646 24.3636 19.5995 25.5171 18.8096C26.6706 18.0198 27.9735 17.6243 29.4253 17.6243C30.5589 17.6243 31.5285 17.9008 32.3342 18.4536C33.1399 19.0065 33.7215 19.7815 34.0795 20.7789C34.4375 21.7764 34.6165 23.973 34.6165 27.3694V37.6134C34.6165 38.3793 35.2416 38.9999 36.0129 38.9999H41.6029C42.3742 38.9999 42.9993 38.3793 42.9993 37.6134V23.8743C42.9993 21.4455 42.845 19.5792 42.5371 18.2759C42.2291 16.9727 41.6819 15.8076 40.8961 14.7803L40.8966 14.7808Z" fill="#422667"/>
</g>
<defs>
<clipPath id="clip0_1810_211">
<rect width="43" height="39" fill="white"/>
</clipPath>
</defs>
</svg>