<svg width="51" height="36" viewBox="0 0 51 36" fill="none" xmlns="http://www.w3.org/2000/svg">
<g clip-path="url(#clip0_745_466)">
<path fill-rule="evenodd" clip-rule="evenodd" d="M20.527 24.0454V9.99469C25.5372 12.3417 29.4158 14.6073 34.0048 17.0545C30.2205 19.1449 25.5372 21.4856 20.527 24.0454ZM48.4444 3.01C47.5832 1.87718 46.1059 0.994703 44.5406 0.700545C39.9328 -0.170038 11.1793 -0.170038 6.57145 0.700545C5.3142 0.938375 4.19524 1.50166 3.23343 2.38413C-0.814935 6.13308 0.454895 26.2166 1.42927 29.4655C1.83788 30.8737 2.37221 31.8876 3.03856 32.5572C3.89978 33.4397 5.0816 34.0468 6.43315 34.3159C10.2301 35.0983 29.7741 35.5364 44.4589 34.4348C45.8105 34.197 47.0111 33.5712 47.9541 32.6574C51.7007 28.9272 51.443 7.71653 48.4444 3.01Z" fill="#422667"/>
</g>
<defs>
<clipPath id="clip0_745_466">
<rect width="50.2872" height="35.0486" fill="white" transform="translate(0.442383 0.0477295)"/>
</clipPath>
</defs>
</svg>
