<?xml version="1.0" encoding="UTF-8"?>
<!DOCTYPE svg PUBLIC "-//W3C//DTD SVG 1.1//EN" "http://www.w3.org/Graphics/SVG/1.1/DTD/svg11.dtd">
<svg xmlns="http://www.w3.org/2000/svg" version="1.1" width="97px" height="96px" style="shape-rendering:geometricPrecision; text-rendering:geometricPrecision; image-rendering:optimizeQuality; fill-rule:evenodd; clip-rule:evenodd" xmlns:xlink="http://www.w3.org/1999/xlink">
<g><path style="opacity:1" fill="#eb2a74" d="M -0.5,0.5 C -0.5,0.166667 -0.5,-0.166667 -0.5,-0.5C 10.5,-0.5 21.5,-0.5 32.5,-0.5C 32.5,10.1667 32.5,20.8333 32.5,31.5C 32.1667,31.5 31.8333,31.5 31.5,31.5C 31.1667,31.5 30.8333,31.5 30.5,31.5C 20.5,20.8333 10.1667,10.5 -0.5,0.5 Z"/></g>
<g><path style="opacity:0.922" fill="#ef9a1f" d="M 63.5,-0.5 C 74.5,-0.5 85.5,-0.5 96.5,-0.5C 96.5,10.1667 96.5,20.8333 96.5,31.5C 95.8333,31.5 95.1667,31.5 94.5,31.5C 84.1667,20.8333 73.8333,10.1667 63.5,-0.5 Z"/></g>
<g><path style="opacity:1" fill="#c41f47" d="M -0.5,0.5 C 10.1667,10.5 20.5,20.8333 30.5,31.5C 20.1667,31.5 9.83333,31.5 -0.5,31.5C -0.5,21.1667 -0.5,10.8333 -0.5,0.5 Z"/></g>
<g><path style="opacity:1" fill="#9a5298" d="M -0.5,32.5 C -0.5,32.1667 -0.5,31.8333 -0.5,31.5C 9.83333,31.5 20.1667,31.5 30.5,31.5C 30.8333,31.5 31.1667,31.5 31.5,31.5C 31.5,42.1667 31.5,52.8333 31.5,63.5C 31.1667,63.5 30.8333,63.5 30.5,63.5C 20.5,52.8333 10.1667,42.5 -0.5,32.5 Z"/></g>
<g><path style="opacity:0.955" fill="#ec2a75" d="M 64.5,31.5 C 74.5,31.5 84.5,31.5 94.5,31.5C 95.1667,31.5 95.8333,31.5 96.5,31.5C 96.5,52.8333 96.5,74.1667 96.5,95.5C 96.1667,95.5 95.8333,95.5 95.5,95.5C 85.3688,84.8683 75.0355,74.3683 64.5,64C 74.8333,63.6667 85.1667,63.3333 95.5,63C 84.9645,52.6317 74.6312,42.1317 64.5,31.5 Z"/></g>
<g><path style="opacity:1" fill="#51266f" d="M -0.5,32.5 C 10.1667,42.5 20.5,52.8333 30.5,63.5C 20.1667,63.5 9.83333,63.5 -0.5,63.5C -0.5,53.1667 -0.5,42.8333 -0.5,32.5 Z"/></g>
<g><path style="opacity:1" fill="#ea9724" d="M -0.5,64.5 C -0.5,64.1667 -0.5,63.8333 -0.5,63.5C 9.83333,63.5 20.1667,63.5 30.5,63.5C 30.8333,63.5 31.1667,63.5 31.5,63.5C 31.8333,63.5 32.1667,63.5 32.5,63.5C 32.5,74.1667 32.5,84.8333 32.5,95.5C 31.8333,95.5 31.1667,95.5 30.5,95.5C 20.5,84.8333 10.1667,74.5 -0.5,64.5 Z"/></g>
<g><path style="opacity:1" fill="#4f266f" d="M -0.5,64.5 C 10.1667,74.5 20.5,84.8333 30.5,95.5C 20.1667,95.5 9.83333,95.5 -0.5,95.5C -0.5,85.1667 -0.5,74.8333 -0.5,64.5 Z"/></g>
<g><path style="opacity:0.992" fill="#c52048" d="M 31.5,31.5 C 31.8333,31.5 32.1667,31.5 32.5,31.5C 42.4645,41.9651 52.6312,52.2984 63,62.5C 63.4998,52.172 63.6665,41.8387 63.5,31.5C 63.8333,31.5 64.1667,31.5 64.5,31.5C 74.6312,42.1317 84.9645,52.6317 95.5,63C 85.1667,63.3333 74.8333,63.6667 64.5,64C 75.0355,74.3683 85.3688,84.8683 95.5,95.5C 84.8333,95.5 74.1667,95.5 63.5,95.5C 63.5,84.8333 63.5,74.1667 63.5,63.5C 53.1667,63.5 42.8333,63.5 32.5,63.5C 32.1667,63.5 31.8333,63.5 31.5,63.5C 31.5,52.8333 31.5,42.1667 31.5,31.5 Z"/></g>
<g><path style="opacity:1" fill="#ee9b1f" d="M 32.5,31.5 C 42.8333,31.5 53.1667,31.5 63.5,31.5C 63.6665,41.8387 63.4998,52.172 63,62.5C 52.6312,52.2984 42.4645,41.9651 32.5,31.5 Z"/></g>
</svg>
