<svg width="37" height="37" viewBox="0 0 37 37" fill="none" xmlns="http://www.w3.org/2000/svg">
<circle cx="18.5" cy="18.5" r="18.5" fill="#EF9B20"/>
<path fill-rule="evenodd" clip-rule="evenodd" d="M17.262 29.134C17.262 29.134 10 23.018 10 17C10 14.8783 10.8429 12.8434 12.3431 11.3431C13.8434 9.84285 15.8783 9 18 9C20.1217 9 22.1566 9.84285 23.6569 11.3431C25.1571 12.8434 26 14.8783 26 17C26 23.018 18.738 29.134 18.738 29.134C18.334 29.506 17.669 29.502 17.262 29.134ZM18 20.5C18.4596 20.5 18.9148 20.4095 19.3394 20.2336C19.764 20.0577 20.1499 19.7999 20.4749 19.4749C20.7999 19.1499 21.0577 18.764 21.2336 18.3394C21.4095 17.9148 21.5 17.4596 21.5 17C21.5 16.5404 21.4095 16.0852 21.2336 15.6606C21.0577 15.236 20.7999 14.8501 20.4749 14.5251C20.1499 14.2001 19.764 13.9423 19.3394 13.7664C18.9148 13.5905 18.4596 13.5 18 13.5C17.0717 13.5 16.1815 13.8687 15.5251 14.5251C14.8687 15.1815 14.5 16.0717 14.5 17C14.5 17.9283 14.8687 18.8185 15.5251 19.4749C16.1815 20.1313 17.0717 20.5 18 20.5Z" fill="white"/>
</svg>
