<svg width="42" height="41" viewBox="0 0 42 41" fill="none" xmlns="http://www.w3.org/2000/svg">
<g clip-path="url(#clip0_745_473)">
<path d="M30.4975 0H12.127C5.8883 0 0.8125 5.0758 0.8125 11.3145V29.6855C0.8125 35.9242 5.8883 41 12.127 41H30.498C36.7372 41 41.8125 35.9242 41.8125 29.6855V11.3145C41.8125 5.0758 36.7367 0 30.498 0H30.4975ZM38.1748 29.6855C38.1748 33.9188 34.7308 37.3623 30.4975 37.3623H12.127C7.89423 37.3623 4.45023 33.9188 4.45023 29.6855V11.3145C4.45023 7.08173 7.89371 3.63773 12.127 3.63773H30.498C34.7313 3.63773 38.1753 7.08173 38.1753 11.3145V29.6855H38.1748Z" fill="#422667"/>
<path d="M21.3127 9.93579C15.4871 9.93579 10.748 14.6749 10.748 20.5005C10.748 26.3261 15.4871 31.0646 21.3127 31.0646C27.1383 31.0646 31.8774 26.3255 31.8774 20.5005C31.8774 14.6754 27.1383 9.93579 21.3127 9.93579ZM21.3127 27.4264C17.4936 27.4264 14.3858 24.3191 14.3858 20.5C14.3858 16.6808 17.4931 13.573 21.3127 13.573C25.1324 13.573 28.2397 16.6803 28.2397 20.5C28.2397 24.3191 25.1319 27.4264 21.3127 27.4264Z" fill="#422667"/>
<path d="M32.3199 6.85107C31.6188 6.85107 30.9305 7.135 30.4354 7.63212C29.9378 8.12669 29.6523 8.81549 29.6523 9.51864C29.6523 10.2218 29.9383 10.908 30.4354 11.4051C30.93 11.8997 31.6188 12.1862 32.3199 12.1862C33.021 12.1862 33.7093 11.9002 34.2064 11.4051C34.7035 10.908 34.9875 10.2192 34.9875 9.51864C34.9875 8.81805 34.7035 8.12669 34.2064 7.63212C33.7119 7.135 33.0231 6.85107 32.3199 6.85107Z" fill="#422667"/>
</g>
<defs>
<clipPath id="clip0_745_473">
<rect width="41" height="41" fill="white" transform="translate(0.8125)"/>
</clipPath>
</defs>
</svg>
