<svg width="122" height="40" viewBox="0 0 122 40" fill="none" xmlns="http://www.w3.org/2000/svg">
<path d="M30.871 7.38452C30.6888 7.61848 30.516 7.99637 30.3205 8.24803C29.6739 9.08075 28.7692 10.0174 28.2109 10.8817C28.1491 10.9771 28.1131 11.0317 28.1358 11.1541H34.9747C35.9208 9.875 36.9373 8.64515 37.9054 7.38452H122V40.0001H0V7.38452H30.871ZM114.419 11.0002H108.167V32.3078H114.419V11.0002ZM28.0576 11.1541H21.2188L13.7833 20.7304L20.9068 32.3078H27.8238L20.7902 20.8135L28.0584 11.1541H28.0576ZM13.6769 11.2311H7.65911V32.3078H13.4033C13.4455 32.3078 13.5768 32.1892 13.6769 32.2308V11.2311ZM46.6584 26C46.7124 23.2555 45.8147 20.3556 43.6894 18.4985C41.1262 16.2597 36.9225 15.8311 33.7642 16.9624C26.7228 19.4844 26.5219 29.945 33.8573 32.2523C38.0946 33.5853 44.8858 32.5702 46.1111 27.6146H40.2105C40.1605 27.6146 39.7617 28.2311 39.5865 28.3858C37.767 29.9866 34.586 28.3812 34.7002 25.9992H46.6576L46.6584 26ZM54.8649 30.8462C56.1856 32.2754 57.511 32.898 59.5143 32.7688C68.6059 32.1815 68.4409 16.9862 59.9092 16.3821C57.9426 16.2428 55.811 16.8908 54.6428 18.5124C54.5122 18.6933 54.4841 18.9857 54.2393 19.0773V16.8462H48.6125V37.6158H54.8649V30.8462ZM74.6378 30.8462C75.9359 32.2616 77.3027 32.9173 79.2865 32.768C88.4837 32.0753 88.052 16.9916 79.7596 16.3813C77.9939 16.2513 75.9085 16.7646 74.7176 18.1176C74.4541 18.417 74.2867 18.7972 74.0123 19.0765V16.8454H68.3854V37.615H74.6378V30.8455V30.8462ZM105.978 25.923C106.044 21.4031 103.619 17.488 98.9468 16.5745C92.9141 15.3947 87.3061 19.0319 87.769 25.422C88.1435 30.5961 92.6186 33.0158 97.5018 32.7726C100.874 32.6041 104.485 31.1741 105.431 27.6924H99.4136C99.3917 27.6924 99.3096 27.9571 99.2111 28.0702C97.3978 30.1444 93.9049 28.569 94.0206 25.923H105.978Z" fill="#767676"/>
<path d="M30.8712 7.3845C30.8759 7.37834 30.9736 7.39912 31.0283 7.32909C32.9363 4.88171 34.8082 2.40509 36.7725 -0.000732422H43.4549C41.6017 2.45511 39.7806 4.94405 37.9063 7.38373C36.9382 8.64359 35.9217 9.8742 34.9756 11.1533H28.1367C28.114 11.0309 28.15 10.9763 28.2118 10.8809C28.7709 10.0166 29.6748 9.07996 30.3215 8.24724C30.5169 7.99557 30.689 7.61769 30.8719 7.38373L30.8712 7.3845Z" fill="#E21E39"/>
<path d="M54.8647 30.8462V37.6157H48.6123V16.8461H54.2392V19.0772C54.4839 18.9856 54.512 18.6939 54.6426 18.5123C55.8109 16.8907 57.9424 16.2427 59.909 16.382C68.4408 16.9862 68.6065 32.1814 59.5141 32.7687C57.5108 32.898 56.1854 32.2761 54.8647 30.8462ZM56.8782 20.9427C53.6355 21.4114 54.0726 29.2531 58.1465 27.9601C60.9021 27.0858 60.8294 20.3717 56.8782 20.9427Z" fill="#FEFEFE"/>
<path d="M74.6377 30.8462V37.6158H68.3853V16.8461H74.0121V19.0773C74.2873 18.7979 74.4547 18.4169 74.7174 18.1183C75.9083 16.7653 77.9937 16.252 79.7594 16.3821C88.0519 16.9924 88.4835 32.0761 79.2863 32.7687C77.3017 32.918 75.9357 32.2623 74.6377 30.847V30.8462ZM76.6496 20.9413C73.331 21.4561 73.9175 29.4317 78.0196 27.9055C80.7313 26.8966 80.4866 20.3464 76.6496 20.9413Z" fill="#FEFEFE"/>
<path d="M46.6582 25.9999H34.7007C34.5866 28.3819 37.7675 29.9865 39.5871 28.3865C39.7622 28.2326 40.1603 27.6154 40.2111 27.6154H46.1116C44.8863 32.5701 38.0959 33.586 33.8578 32.2531C26.5224 29.9457 26.7234 19.4859 33.7648 16.9631C36.923 15.8318 41.1267 16.2597 43.6899 18.4993C45.8153 20.3556 46.7129 23.2562 46.659 26.0007L46.6582 25.9999ZM40.4058 22.846C40.2377 19.2935 34.628 19.1226 34.7007 22.846H40.4058Z" fill="#FEFEFE"/>
<path d="M105.978 25.923H94.0206C93.9049 28.5689 97.3978 30.1443 99.2111 28.0702C99.3097 27.9571 99.3918 27.6923 99.4137 27.6923H105.431C104.485 31.1741 100.874 32.604 97.5018 32.7726C92.6194 33.0165 88.1443 30.5961 87.769 25.422C87.3061 19.0311 92.9142 15.3946 98.9468 16.5745C103.619 17.488 106.045 21.4038 105.978 25.923ZM99.7256 22.8461C99.5943 19.2943 93.919 19.1073 94.0206 22.8461H99.7256Z" fill="#FEFEFE"/>
<path d="M28.0575 11.1541L20.7894 20.8135L27.823 32.3077H20.9067L13.7832 20.7304L21.2187 11.1541H28.0575Z" fill="#FEFEFE"/>
<path d="M114.419 11.0001H108.167V32.3077H114.419V11.0001Z" fill="#FEFEFE"/>
<path d="M13.677 11.231V32.2307C13.5769 32.1884 13.4455 32.3076 13.4033 32.3076H7.65918V11.231H13.677Z" fill="#FEFEFE"/>
<path d="M56.8783 20.9429C60.8294 20.3718 60.9022 27.0867 58.1466 27.9602C54.0727 29.2524 53.6356 21.4108 56.8783 20.9429Z" fill="#767676"/>
<path d="M76.6499 20.9413C80.4869 20.3456 80.7316 26.8966 78.0199 27.9055C73.9178 29.4317 73.3313 21.4562 76.6499 20.9413Z" fill="#767676"/>
<path d="M40.4059 22.846H34.7009C34.6282 19.1226 40.2378 19.2935 40.4059 22.846Z" fill="#767676"/>
<path d="M99.7254 22.8461H94.0204C93.9187 19.1073 99.5941 19.2943 99.7254 22.8461Z" fill="#767676"/>
</svg>
