<svg width="37" height="37" viewBox="0 0 37 37" fill="none" xmlns="http://www.w3.org/2000/svg">
<circle cx="18.5" cy="18.5" r="18.5" fill="#422667"/>
<path d="M26 11H10C8.9 11 8.01 11.9 8.01 13L8 25C8 26.1 8.9 27 10 27H26C27.1 27 28 26.1 28 25V13C28 11.9 27.1 11 26 11ZM25.6 15.25L18.53 19.67C18.21 19.87 17.79 19.87 17.47 19.67L10.4 15.25C10.2997 15.1937 10.2119 15.1177 10.1419 15.0265C10.0719 14.9352 10.0211 14.8308 9.99258 14.7194C9.96409 14.608 9.9585 14.4919 9.97616 14.3783C9.99381 14.2647 10.0343 14.1558 10.0953 14.0583C10.1562 13.9608 10.2363 13.8767 10.3307 13.811C10.4251 13.7453 10.5319 13.6995 10.6445 13.6763C10.7571 13.6531 10.8733 13.653 10.986 13.6759C11.0986 13.6989 11.2055 13.7445 11.3 13.81L18 18L24.7 13.81C24.7945 13.7445 24.9014 13.6989 25.014 13.6759C25.1267 13.653 25.2429 13.6531 25.3555 13.6763C25.4681 13.6995 25.5749 13.7453 25.6693 13.811C25.7637 13.8767 25.8438 13.9608 25.9047 14.0583C25.9657 14.1558 26.0062 14.2647 26.0238 14.3783C26.0415 14.4919 26.0359 14.608 26.0074 14.7194C25.9789 14.8308 25.9281 14.9352 25.8581 15.0265C25.7881 15.1177 25.7003 15.1937 25.6 15.25Z" fill="white"/>
</svg>
