<svg width="37" height="37" viewBox="0 0 37 37" fill="none" xmlns="http://www.w3.org/2000/svg">
<circle cx="18.5" cy="18.5" r="18.5" fill="#DB0C53"/>
<path fill-rule="evenodd" clip-rule="evenodd" d="M22.552 29.133C21.112 29.08 17.031 28.516 12.757 24.243C8.484 19.969 7.921 15.889 7.867 14.448C7.787 12.252 9.469 10.119 11.412 9.28597C11.646 9.18494 11.9022 9.14647 12.1555 9.17435C12.4089 9.20222 12.6506 9.29548 12.857 9.44497C14.457 10.611 15.561 12.375 16.509 13.762C16.7176 14.0667 16.8068 14.4375 16.7596 14.8038C16.7123 15.17 16.532 15.5061 16.253 15.748L14.302 17.197C14.2077 17.265 14.1414 17.365 14.1153 17.4783C14.0892 17.5916 14.1051 17.7105 14.16 17.813C14.602 18.616 15.388 19.812 16.288 20.712C17.188 21.612 18.441 22.45 19.3 22.942C19.4077 23.0024 19.5345 23.0193 19.6543 22.9892C19.774 22.9591 19.8777 22.8842 19.944 22.78L21.214 20.847C21.4475 20.5368 21.7919 20.329 22.1752 20.2672C22.5584 20.2053 22.9508 20.2941 23.27 20.515C24.677 21.489 26.319 22.574 27.521 24.113C27.6826 24.3209 27.7854 24.5684 27.8187 24.8296C27.8519 25.0908 27.8144 25.3562 27.71 25.598C26.873 27.551 24.755 29.214 22.552 29.133Z" fill="white"/>
</svg>
