<svg width="35" height="40" viewBox="0 0 35 40" fill="none" xmlns="http://www.w3.org/2000/svg">
<g clip-path="url(#clip0_745_471)">
<path d="M18.4866 0L19.98 0.116364C22.636 0.415418 25.2289 1.21057 27.4693 2.7136C30.8173 4.96019 33.0418 8.6012 34.0308 12.5448L30.781 13.4152C29.7811 9.5197 27.492 6.26695 23.8179 4.67432C18.5611 2.39554 10.9059 3.23956 7.25599 8.08727C3.60006 12.9431 3.32626 22.0071 5.21151 27.6321C7.4326 34.2605 12.7994 36.6755 19.375 36.1433C23.2899 35.8268 27.6451 33.6593 28.8005 29.5203C29.6132 26.6085 28.6379 23.4922 25.994 22.0268C25.6589 24.6194 24.6552 27.2609 22.5226 28.8225C19.3504 31.1459 13.819 30.7595 11.3986 27.4533C9.74067 25.1881 9.79513 21.8089 11.6218 19.6612C14.2725 16.5438 19.0074 16.5931 22.6841 17.1407C22.3361 14.9772 21.3018 13.326 19.0993 12.8865C16.967 12.4614 14.6556 13.0013 13.4004 14.9232L10.6207 12.9722C11.7121 11.3086 13.3194 10.1004 15.2179 9.58176C17.3868 8.98908 20.095 9.18147 22.0797 10.2955C24.8636 11.8574 25.9902 15.0384 26.1441 18.15C29.3193 19.5681 31.6822 22.1273 32.2722 25.7109C33.5217 33.3044 26.9542 39.0691 20.0557 39.5954L18.5244 39.7118C17.984 39.6959 17.4383 39.7331 16.8982 39.7118C11.0371 39.4814 6.0439 36.9668 3.22604 31.5687C0.44902 26.2489 0.118863 18.4491 1.54651 12.665C3.49455 4.77168 8.90677 0.316509 16.8604 0H18.4866ZM18.5921 20.3714C16.7575 20.4443 13.7759 21.0036 13.5706 23.3662C13.2828 26.6787 17.5755 27.3815 19.8738 26.3781C21.972 25.4623 22.6111 22.874 22.7442 20.7453C21.402 20.4253 19.9695 20.3163 18.5921 20.3714Z" fill="#422667"/>
</g>
<defs>
<clipPath id="clip0_745_471">
<rect width="33.3125" height="39.7188" fill="white" transform="translate(0.718262)"/>
</clipPath>
</defs>
</svg>
