<svg width="37" height="41" viewBox="0 0 37 41" fill="none" xmlns="http://www.w3.org/2000/svg">
<g clip-path="url(#clip0_745_464)">
<path d="M32.2512 8.7688C31.972 8.62558 31.6999 8.46924 31.4361 8.29924C30.6695 7.79742 29.967 7.20596 29.3434 6.53797C27.7827 4.76905 27.1999 2.97444 26.9852 1.71827H26.9941C26.8147 0.675283 26.8887 0.000732422 26.9003 0.000732422H19.7916V27.2282C19.7916 27.5939 19.7916 27.9552 19.7761 28.3122C19.7761 28.3565 19.7717 28.3975 19.7695 28.4456C19.7695 28.4652 19.7695 28.4855 19.7651 28.5062V28.5215C19.6128 30.5053 18.4743 32.2841 16.7281 33.2669C15.8319 33.772 14.8181 34.0371 13.7867 34.0355C10.4743 34.0355 7.79003 31.3602 7.79003 28.0564C7.79003 24.7525 10.4743 22.0772 13.7867 22.0772C14.4136 22.0767 15.0367 22.1745 15.6327 22.367L15.6415 15.1973C11.9832 14.7293 8.29334 15.798 5.4661 18.1458C4.24094 19.2003 3.21059 20.4586 2.42197 21.864C2.12175 22.3768 0.989861 24.436 0.852444 27.7781C0.766352 29.675 1.3414 31.6407 1.61568 32.453V32.4699C1.78787 32.9482 2.45618 34.5805 3.54558 35.9564C4.42361 37.06 5.46113 38.0298 6.62503 38.8339V38.8169L6.64214 38.8339C10.0836 41.15 13.8993 40.998 13.8993 40.998C14.5598 40.9718 16.7723 40.998 19.285 39.8184C22.0719 38.5108 23.6586 36.5626 23.6586 36.5626C24.6723 35.3982 25.4781 34.0721 26.0421 32.6394C26.6856 30.9645 26.9003 28.9556 26.9003 28.1526V13.7082C26.9864 13.7596 28.1353 14.5118 28.1353 14.5118C28.1353 14.5118 29.7899 15.5624 32.3721 16.2463C34.2242 16.7333 36.7197 16.8355 36.7197 16.8355V9.84568C35.8456 9.9397 34.0696 9.66638 32.2523 8.7688H32.2512Z" fill="#422667"/>
</g>
<defs>
<clipPath id="clip0_745_464">
<rect width="35.875" height="41" fill="white" transform="translate(0.84375)"/>
</clipPath>
</defs>
</svg>
